<?xml version="1.0" encoding="utf-8"?>
<!-- Generator: Adobe Illustrator 23.0.1, SVG Export Plug-In . SVG Version: 6.00 Build 0)  -->
<svg version="1.1" id="Layer_1" xmlns="http://www.w3.org/2000/svg" xmlns:xlink="http://www.w3.org/1999/xlink" x="0px" y="0px"
	 viewBox="0 0 700 700" style="enable-background:new 0 0 700 700;" xml:space="preserve">
<style type="text/css">
	.st0{fill:#FFFFFF;}
</style>
<g>
	<path class="st0" d="M346.1,70C192.1,72.2,67.8,199.4,70,353.9C72.2,508.5,199.4,632.2,353.9,630
		c154.6-2.2,278.3-129.4,276.1-283.9C627.8,192.1,500.6,67.8,346.1,70z M353.4,616.6C206.6,618.8,85.7,500.6,83.4,353.4
		C81.2,206.6,199.4,85.7,346.6,83.4c146.7-2.2,268.2,115.9,269.9,263.2C618.8,493.4,500.6,614.3,353.4,616.6L353.4,616.6z"/>
	<path class="st0" d="M381.9,285c-24.1,0-43.1-19.6-43.1-43.1s19.6-43.1,43.1-43.1s43.1,19.6,43.1,43.1
		C425,265.4,405.4,285,381.9,285z M381.9,212.8c-16.2,0-29.1,12.9-29.1,29.1c0,16.2,12.9,29.1,29.1,29.1c16.2,0,29.1-12.9,29.1-29.1
		C411,225.7,398.2,212.8,381.9,212.8z"/>
	<path class="st0" d="M325.9,398.2h-76.7c-2.8,0-5.6-1.7-6.7-4.5L210,314.2c-1.7-3.4,0-7.8,3.9-9c3.4-1.7,7.8,0,9,3.9l30.8,75h72.2
		c3.9,0,6.7,3.4,6.7,6.7S329.8,398.2,325.9,398.2L325.9,398.2z"/>
	<path class="st0" d="M346.6,416.6H211.1c-3.9,0-6.7-3.4-6.7-6.7s3.4-6.7,6.7-6.7h135.5c3.9,0,6.7,3.4,6.7,6.7
		S350.6,416.6,346.6,416.6z"/>
	<path class="st0" d="M324.2,518H322c-10.6-1.7-17.4-15.7-15.7-33c3.4-38.1,24.1-62.2,60.5-70.6c12.3-2.8,10.1-39.8,8.4-64.4
		c-1.1-20.2-2.2-37.5,1.7-47c6.2-14,28.6-30.8,52.6-23c23,7.3,45.9,42.6,43.7,83.4c-2.8,54.3-29.7,84.6-54.9,86.2
		c-57.1,3.9-66.6,22.4-71.1,39.8C341,514.1,330.4,518,324.2,518L324.2,518z M416.6,292.3c-14,0-24.6,10.6-26.9,16.2
		c-2.8,6.2-1.7,24.1-0.6,40.3c2.2,34.7,4.5,73.4-19,79c-30.2,6.7-47,26.3-49.8,58.2c-1.1,11.8,2.8,17.9,4.5,18.5
		c1.1,0,5.6-3.9,9.5-18.5c11.8-45.4,58.8-48.2,83.4-50.4c23.5-1.7,39.8-38.6,41.4-72.8c1.7-35.3-18.5-64.4-34.2-69.4
		C422.2,292.3,419.4,292.3,416.6,292.3L416.6,292.3z"/>
	<path class="st0" d="M471,468.7h-62.7c-3.9,0-6.7-3.4-6.7-6.7s3.4-6.7,6.7-6.7h57.1l30.2-155.1c0.6-3.9,4.5-6.2,8.4-5.6
		c3.9,0.6,6.2,4.5,5.6,8.4l-31.4,160.2C477.1,465.9,474.3,468.7,471,468.7L471,468.7z"/>
	<path class="st0" d="M314.7,380.8c-2.2,0-4.5-0.6-6.7-1.1c-5-1.7-9.5-5.6-12.3-10.6v-0.6c-2.2-5-2.8-10.6-1.1-16.2
		c1.7-5.6,5.6-9.5,10.6-12.3l72.8-38.1c3.4-1.7,7.8-0.6,9.5,2.8c1.7,3.4,0.6,7.8-2.8,9.5l-72.8,38.1c-1.7,1.1-2.8,2.2-3.4,3.9
		c-0.6,1.7-0.6,3.4,0.6,5v0.6c1.7,3.4,5.6,5,9.5,2.8l59.4-31.4c3.4-1.7,7.8-0.6,9.5,2.8s0.6,7.8-2.8,9.5l-59.4,31.4
		C321.4,380.2,318.1,380.8,314.7,380.8L314.7,380.8z"/>
</g>
</svg>
