<?xml version="1.0" encoding="utf-8"?>
<!-- Generator: Adobe Illustrator 23.0.1, SVG Export Plug-In . SVG Version: 6.00 Build 0)  -->
<svg version="1.1" id="Layer_1" xmlns="http://www.w3.org/2000/svg" xmlns:xlink="http://www.w3.org/1999/xlink" x="0px" y="0px"
	 viewBox="0 0 700 700" style="enable-background:new 0 0 700 700;" xml:space="preserve">
<style type="text/css">
	.st0{fill:#FFFFFF;}
</style>
<g>
	<path class="st0" d="M373.3,408.3h-46.7c-6.2,0-12.1-2.5-16.5-6.8s-6.8-10.3-6.8-16.5H140v81.7c0,18.6,7.4,36.4,20.5,49.5
		c13.1,13.1,30.9,20.5,49.5,20.5h280c18.6,0,36.4-7.4,49.5-20.5c13.1-13.1,20.5-30.9,20.5-49.5V385H396.7c0,6.2-2.5,12.1-6.8,16.5
		S379.5,408.3,373.3,408.3L373.3,408.3z"/>
	<path class="st0" d="M490,233.3h-70V210c0-12.4-4.9-24.2-13.7-33c-8.8-8.8-20.6-13.7-33-13.7h-46.7c-12.4,0-24.2,4.9-33,13.7
		c-8.8,8.8-13.7,20.6-13.7,33v23.3h-70c-18.6,0-36.4,7.4-49.5,20.5c-13,13.2-20.4,31-20.4,49.5V350h163.3c0-6.2,2.5-12.1,6.8-16.5
		s10.3-6.8,16.5-6.8h46.7l0,0c6.2,0,12.1,2.5,16.5,6.8s6.8,10.3,6.8,16.5H560v-46.7c0-18.6-7.4-36.4-20.5-49.5
		S508.6,233.3,490,233.3L490,233.3z M396.7,233.3h-93.3V210c0-6.2,2.5-12.1,6.8-16.5c4.3-4.4,10.3-6.8,16.5-6.8h46.7l0,0
		c6.2,0,12.1,2.5,16.5,6.8s6.8,10.3,6.8,16.5V233.3z"/>
</g>
</svg>
