<svg width="64" height="64" viewBox="0 0 64 64" fill="none" xmlns="http://www.w3.org/2000/svg">
<path d="M46 49V46.3016C46 44.3651 45.1825 42.5079 43.7274 41.1386C42.2723 39.7693 40.2987 39 38.2409 39H25.7591C23.7013 39 21.7277 39.7693 20.2726 41.1386C18.8175 42.5079 18 44.3651 18 46.3016V49" stroke="#393E46" stroke-width="2" stroke-linecap="round" stroke-linejoin="round"/>
<path d="M32 31C36.4183 31 40 27.4183 40 23C40 18.5817 36.4183 15 32 15C27.5817 15 24 18.5817 24 23C24 27.4183 27.5817 31 32 31Z" stroke="#393E46" stroke-width="2" stroke-linecap="round" stroke-linejoin="round"/>
<circle cx="32" cy="32" r="24" stroke="#393E46" stroke-width="2"/>
</svg>
